<?xml version="1.0" encoding="UTF-8"?>
<svg xmlns="http://www.w3.org/2000/svg" xmlns:xlink="http://www.w3.org/1999/xlink" width="3209.93" height="3415.56" viewBox="0 0 3209.93 3415.56">
<defs>
<clipPath id="clip-0">
<path clip-rule="nonzero" d="M 0 0 L 3209.929688 0 L 3209.929688 3415.558594 L 0 3415.558594 Z M 0 0 "/>
</clipPath>
<clipPath id="clip-1">
<path clip-rule="evenodd" d="M 2825.179688 1031.160156 C 2798.078125 886.351562 2715.78125 739.160156 2593.28125 616.660156 C 2470.78125 494.160156 2323.578125 411.851562 2178.878906 384.75 C 2157.578125 380.851562 2143.578125 360.351562 2147.578125 339.050781 C 2151.578125 317.851562 2171.980469 303.851562 2193.28125 307.75 C 2353.480469 337.660156 2515.179688 427.75 2648.679688 561.25 C 2782.179688 694.75 2872.179688 856.449219 2902.179688 1016.550781 C 2906.179688 1037.859375 2892.179688 1058.160156 2870.878906 1062.261719 C 2868.480469 1062.761719 2866.078125 1062.960938 2863.679688 1062.960938 C 2845.179688 1063.160156 2828.679688 1049.960938 2825.179688 1031.160156 Z M 2471.980469 738.050781 C 2536.578125 802.550781 2580.28125 881.25 2594.878906 959.351562 C 2598.78125 980.660156 2584.78125 1001.058594 2563.578125 1005.058594 C 2561.179688 1005.558594 2558.78125 1005.761719 2556.378906 1005.761719 C 2537.980469 1005.761719 2521.480469 992.660156 2517.980469 973.851562 C 2506.28125 911.160156 2470.378906 847.050781 2416.679688 793.449219 C 2363.179688 739.949219 2298.980469 703.851562 2236.28125 692.148438 C 2215.078125 688.25 2200.980469 667.75 2204.980469 646.449219 C 2208.878906 625.148438 2229.378906 611.25 2250.679688 615.148438 C 2328.78125 629.75 2407.378906 673.351562 2471.980469 738.050781 Z M 3177.980469 1119.859375 C 3175.578125 1120.359375 3173.078125 1120.558594 3170.78125 1120.558594 C 3152.28125 1120.558594 3135.878906 1107.460938 3132.480469 1088.660156 C 3089.980469 861.851562 2961.28125 631.550781 2769.980469 440.160156 C 2578.578125 248.851562 2348.28125 120.050781 2121.480469 77.660156 C 2100.179688 73.660156 2086.179688 53.25 2090.179688 31.960938 C 2094.078125 10.648438 2114.578125 -3.25 2135.878906 0.648438 C 2377.980469 45.960938 2622.878906 182.449219 2825.179688 384.75 C 3027.480469 587.050781 3163.980469 831.949219 3209.28125 1074.050781 C 3213.179688 1095.460938 3199.179688 1115.960938 3177.980469 1119.859375 Z M 1030.980469 384.851562 C 886.183594 411.949219 738.980469 494.25 616.480469 616.75 C 494.082031 739.25 411.78125 886.449219 384.683594 1031.160156 C 381.183594 1049.960938 364.683594 1063.058594 346.28125 1063.058594 C 343.882812 1063.058594 341.480469 1062.859375 339.082031 1062.359375 C 317.882812 1058.359375 303.882812 1037.960938 307.78125 1016.660156 C 337.78125 856.449219 427.78125 694.75 561.28125 561.351562 C 694.78125 427.851562 856.480469 337.75 1016.578125 307.851562 C 1037.878906 303.949219 1058.179688 317.949219 1062.28125 339.160156 C 1066.28125 360.449219 1052.28125 380.851562 1030.980469 384.851562 Z M 1004.878906 646.351562 C 1008.78125 667.660156 994.78125 688.050781 973.582031 692.050781 C 910.882812 703.75 846.882812 739.75 793.183594 793.351562 C 739.683594 846.851562 703.582031 911.050781 691.882812 973.75 C 688.382812 992.550781 671.882812 1005.660156 653.582031 1005.660156 C 651.183594 1005.660156 648.78125 1005.460938 646.382812 1004.960938 C 625.082031 1001.058594 611.082031 980.550781 615.082031 959.261719 C 629.683594 881.160156 673.382812 802.550781 737.980469 737.859375 C 802.582031 673.359375 881.183594 629.660156 959.382812 615.050781 C 980.28125 611.25 1000.78125 625.160156 1004.878906 646.351562 Z M 440.082031 440.160156 C 248.683594 631.550781 119.980469 861.851562 77.582031 1088.660156 C 74.082031 1107.460938 57.582031 1120.558594 39.183594 1120.558594 C 36.78125 1120.558594 34.480469 1120.359375 31.980469 1119.859375 C 10.683594 1115.960938 -3.316406 1095.460938 0.683594 1074.160156 C 45.980469 832.050781 182.382812 587.160156 384.78125 384.851562 C 587.183594 182.550781 831.980469 46.058594 1074.179688 0.761719 C 1095.378906 -3.148438 1115.78125 10.851562 1119.878906 32.058594 C 1123.78125 53.261719 1109.78125 73.660156 1088.578125 77.761719 C 861.683594 120.050781 631.28125 248.75 440.082031 440.160156 Z M 1665.878906 1820.160156 L 1543.980469 1820.160156 L 1543.980469 1735.160156 L 1665.878906 1735.160156 Z M 1704.980469 1656.960938 L 1504.78125 1656.960938 C 1483.179688 1656.960938 1465.679688 1674.460938 1465.679688 1695.960938 L 1465.679688 1859.160156 C 1465.679688 1880.761719 1483.28125 1898.261719 1504.78125 1898.261719 L 1704.980469 1898.261719 C 1726.578125 1898.261719 1744.078125 1880.660156 1744.078125 1859.160156 L 1744.078125 1695.960938 C 1744.078125 1674.460938 1726.578125 1656.960938 1704.980469 1656.960938 Z M 1570.78125 1268.261719 L 1639.179688 1268.261719 L 1662.179688 1518.558594 L 1547.78125 1518.558594 Z M 1504.78125 1596.761719 L 1704.980469 1596.761719 C 1715.980469 1596.761719 1726.480469 1592.160156 1733.878906 1583.960938 C 1741.28125 1575.859375 1744.980469 1564.859375 1743.980469 1554.058594 L 1713.78125 1225.558594 C 1711.878906 1205.460938 1695.078125 1190.058594 1674.78125 1190.058594 L 1535.078125 1190.058594 C 1514.878906 1190.058594 1497.980469 1205.460938 1496.179688 1225.558594 L 1465.980469 1554.058594 C 1464.980469 1564.960938 1468.679688 1575.859375 1476.078125 1583.960938 C 1483.378906 1592.261719 1493.878906 1596.761719 1504.78125 1596.761719 Z M 1171.578125 1957.960938 C 1136.78125 1957.960938 1107.980469 1941.359375 1090.578125 1911.160156 C 1073.078125 1881.050781 1073.078125 1847.761719 1090.578125 1817.660156 L 1523.878906 1066.960938 C 1541.378906 1036.859375 1570.078125 1020.160156 1604.878906 1020.160156 C 1639.679688 1020.160156 1668.480469 1036.761719 1685.878906 1066.960938 L 2119.28125 1817.660156 C 2136.679688 1847.761719 2136.679688 1881.050781 2119.28125 1911.160156 C 2101.78125 1941.261719 2073.179688 1957.960938 2038.28125 1957.960938 Z M 2186.980469 1950.261719 C 2218.480469 1895.660156 2218.480469 1833.050781 2186.980469 1778.550781 L 1753.679688 1027.859375 C 1722.179688 973.261719 1667.980469 941.949219 1604.878906 941.949219 C 1541.878906 941.949219 1487.679688 973.261719 1456.179688 1027.859375 L 1022.78125 1778.550781 C 991.28125 1833.160156 991.28125 1895.660156 1022.78125 1950.261719 C 1054.28125 2004.859375 1108.480469 2036.160156 1171.578125 2036.160156 L 2038.378906 2036.160156 C 2101.28125 2036.160156 2155.480469 2004.859375 2186.980469 1950.261719 Z M 278.382812 3337.261719 L 431.78125 2967.359375 L 2777.878906 2967.359375 L 2931.378906 3337.261719 Z M 1604.878906 2486.050781 C 1551.78125 2486.050781 1508.679688 2442.859375 1508.679688 2389.859375 C 1508.679688 2336.761719 1551.78125 2293.660156 1604.878906 2293.660156 C 1657.980469 2293.660156 1701.078125 2336.859375 1701.078125 2389.859375 C 1701.078125 2442.859375 1657.980469 2486.050781 1604.878906 2486.050781 Z M 671.183594 1716.859375 C 671.183594 1202.058594 1090.078125 783.160156 1604.878906 783.160156 C 2119.78125 783.160156 2538.679688 1202.058594 2538.679688 1716.859375 L 2538.679688 2889.160156 L 1644.078125 2889.160156 L 1644.078125 2559.761719 C 1721.480469 2541.960938 1779.378906 2472.558594 1779.378906 2389.761719 C 1779.378906 2293.660156 1701.179688 2215.359375 1604.980469 2215.359375 C 1508.878906 2215.359375 1430.578125 2293.558594 1430.578125 2389.761719 C 1430.578125 2472.460938 1488.480469 2541.960938 1565.878906 2559.761719 L 1565.878906 2889.160156 L 671.28125 2889.160156 L 671.28125 1716.859375 Z M 2840.179688 2913.160156 C 2834.078125 2898.550781 2819.878906 2889.050781 2804.078125 2889.050781 L 2616.878906 2889.050781 L 2616.878906 1716.859375 C 2616.878906 1447.660156 2511.28125 1193.859375 2319.679688 1002.160156 C 2127.878906 810.449219 1874.179688 704.949219 1604.878906 704.949219 C 1335.679688 704.949219 1081.878906 810.550781 890.183594 1002.160156 C 698.480469 1193.859375 592.980469 1447.660156 592.980469 1716.859375 L 592.980469 2889.160156 L 405.78125 2889.160156 C 389.980469 2889.160156 375.683594 2898.660156 369.582031 2913.261719 L 183.683594 3361.359375 C 178.683594 3373.460938 180.082031 3387.261719 187.28125 3398.160156 C 194.480469 3409.058594 206.78125 3415.550781 219.78125 3415.550781 L 2989.878906 3415.550781 C 3002.980469 3415.550781 3015.179688 3409.050781 3022.378906 3398.160156 C 3029.578125 3387.261719 3031.078125 3373.550781 3025.980469 3361.359375 L 2840.179688 2913.160156 "/>
</clipPath>
<linearGradient id="linear-pattern-0" gradientUnits="userSpaceOnUse" x1="-0.136172" y1="0" x2="1.036065" y2="0" gradientTransform="matrix(2826, 2826, -2826, 2826, 191.932, 577.71)">
<stop offset="0" stop-color="rgb(83.769226%, 15.103149%, 17.62085%)" stop-opacity="1"/>
<stop offset="0.0625" stop-color="rgb(83.769226%, 15.103149%, 17.62085%)" stop-opacity="1"/>
<stop offset="0.09375" stop-color="rgb(83.769226%, 15.103149%, 17.62085%)" stop-opacity="1"/>
<stop offset="0.109375" stop-color="rgb(83.769226%, 15.103149%, 17.62085%)" stop-opacity="1"/>
<stop offset="0.117187" stop-color="rgb(83.770752%, 15.129089%, 17.607117%)" stop-opacity="1"/>
<stop offset="0.121094" stop-color="rgb(83.781433%, 15.354919%, 17.480469%)" stop-opacity="1"/>
<stop offset="0.125" stop-color="rgb(83.792114%, 15.55481%, 17.36908%)" stop-opacity="1"/>
<stop offset="0.128906" stop-color="rgb(83.799744%, 15.719604%, 17.259216%)" stop-opacity="1"/>
<stop offset="0.132812" stop-color="rgb(83.808899%, 15.882874%, 17.150879%)" stop-opacity="1"/>
<stop offset="0.136719" stop-color="rgb(83.815002%, 15.992737%, 17.045593%)" stop-opacity="1"/>
<stop offset="0.140625" stop-color="rgb(83.821106%, 16.1026%, 16.940308%)" stop-opacity="1"/>
<stop offset="0.144531" stop-color="rgb(83.940125%, 16.278076%, 16.835022%)" stop-opacity="1"/>
<stop offset="0.148437" stop-color="rgb(84.059143%, 16.453552%, 16.72821%)" stop-opacity="1"/>
<stop offset="0.152344" stop-color="rgb(84.234619%, 16.661072%, 16.621399%)" stop-opacity="1"/>
<stop offset="0.15625" stop-color="rgb(84.410095%, 16.870117%, 16.514587%)" stop-opacity="1"/>
<stop offset="0.160156" stop-color="rgb(84.428406%, 16.98761%, 16.40625%)" stop-opacity="1"/>
<stop offset="0.164062" stop-color="rgb(84.44519%, 17.105103%, 16.297913%)" stop-opacity="1"/>
<stop offset="0.167969" stop-color="rgb(84.468079%, 17.211914%, 16.188049%)" stop-opacity="1"/>
<stop offset="0.171875" stop-color="rgb(84.490967%, 17.320251%, 16.078186%)" stop-opacity="1"/>
<stop offset="0.175781" stop-color="rgb(84.579468%, 17.420959%, 15.957642%)" stop-opacity="1"/>
<stop offset="0.179687" stop-color="rgb(84.667969%, 17.521667%, 15.837097%)" stop-opacity="1"/>
<stop offset="0.1875" stop-color="rgb(84.719849%, 17.6651%, 15.740967%)" stop-opacity="1"/>
<stop offset="0.191406" stop-color="rgb(84.780884%, 17.996216%, 15.57312%)" stop-opacity="1"/>
<stop offset="0.195312" stop-color="rgb(84.791565%, 18.185425%, 15.501404%)" stop-opacity="1"/>
<stop offset="0.203125" stop-color="rgb(84.860229%, 18.310547%, 15.393066%)" stop-opacity="1"/>
<stop offset="0.207031" stop-color="rgb(85.015869%, 18.536377%, 15.162659%)" stop-opacity="1"/>
<stop offset="0.210937" stop-color="rgb(85.10437%, 18.638611%, 15.039062%)" stop-opacity="1"/>
<stop offset="0.214844" stop-color="rgb(85.115051%, 18.82782%, 14.96582%)" stop-opacity="1"/>
<stop offset="0.21875" stop-color="rgb(85.125732%, 19.017029%, 14.892578%)" stop-opacity="1"/>
<stop offset="0.222656" stop-color="rgb(85.179138%, 19.186401%, 14.822388%)" stop-opacity="1"/>
<stop offset="0.226562" stop-color="rgb(85.23407%, 19.355774%, 14.753723%)" stop-opacity="1"/>
<stop offset="0.234375" stop-color="rgb(85.406494%, 19.468689%, 14.697266%)" stop-opacity="1"/>
<stop offset="0.242187" stop-color="rgb(85.71167%, 19.732666%, 14.56604%)" stop-opacity="1"/>
<stop offset="0.246094" stop-color="rgb(85.9375%, 20.066833%, 14.404297%)" stop-opacity="1"/>
<stop offset="0.25" stop-color="rgb(86.032104%, 20.249939%, 14.315796%)" stop-opacity="1"/>
<stop offset="0.257812" stop-color="rgb(86.054993%, 20.358276%, 14.289856%)" stop-opacity="1"/>
<stop offset="0.265625" stop-color="rgb(86.087036%, 20.558167%, 14.245605%)" stop-opacity="1"/>
<stop offset="0.273438" stop-color="rgb(86.187744%, 20.742798%, 14.152527%)" stop-opacity="1"/>
<stop offset="0.28125" stop-color="rgb(86.39679%, 20.933533%, 14.022827%)" stop-opacity="1"/>
<stop offset="0.289062" stop-color="rgb(86.689758%, 21.138%, 13.95874%)" stop-opacity="1"/>
<stop offset="0.296875" stop-color="rgb(86.991882%, 21.398926%, 13.893127%)" stop-opacity="1"/>
<stop offset="0.300781" stop-color="rgb(87.216187%, 21.739197%, 13.742065%)" stop-opacity="1"/>
<stop offset="0.304687" stop-color="rgb(87.312317%, 21.923828%, 13.650513%)" stop-opacity="1"/>
<stop offset="0.308594" stop-color="rgb(87.330627%, 22.042847%, 13.534546%)" stop-opacity="1"/>
<stop offset="0.3125" stop-color="rgb(87.347412%, 22.163391%, 13.417053%)" stop-opacity="1"/>
<stop offset="0.316406" stop-color="rgb(87.367249%, 22.28241%, 13.301086%)" stop-opacity="1"/>
<stop offset="0.320312" stop-color="rgb(87.385559%, 22.401428%, 13.183594%)" stop-opacity="1"/>
<stop offset="0.324219" stop-color="rgb(87.481689%, 22.589111%, 13.088989%)" stop-opacity="1"/>
<stop offset="0.328125" stop-color="rgb(87.57782%, 22.773743%, 12.994385%)" stop-opacity="1"/>
<stop offset="0.335938" stop-color="rgb(87.638855%, 22.921753%, 12.931824%)" stop-opacity="1"/>
<stop offset="0.34375" stop-color="rgb(87.704468%, 23.15979%, 12.85553%)" stop-opacity="1"/>
<stop offset="0.351562" stop-color="rgb(87.776184%, 23.399353%, 12.809753%)" stop-opacity="1"/>
<stop offset="0.355469" stop-color="rgb(87.937927%, 23.725891%, 12.736511%)" stop-opacity="1"/>
<stop offset="0.359375" stop-color="rgb(88.035583%, 23.902893%, 12.695312%)" stop-opacity="1"/>
<stop offset="0.363281" stop-color="rgb(88.052368%, 24.084473%, 12.666321%)" stop-opacity="1"/>
<stop offset="0.367187" stop-color="rgb(88.069153%, 24.266052%, 12.637329%)" stop-opacity="1"/>
<stop offset="0.371094" stop-color="rgb(88.079834%, 24.430847%, 12.612915%)" stop-opacity="1"/>
<stop offset="0.375" stop-color="rgb(88.088989%, 24.594116%, 12.586975%)" stop-opacity="1"/>
<stop offset="0.382812" stop-color="rgb(88.095093%, 24.685669%, 12.573242%)" stop-opacity="1"/>
<stop offset="0.390625" stop-color="rgb(88.150024%, 24.909973%, 12.532043%)" stop-opacity="1"/>
<stop offset="0.394531" stop-color="rgb(88.296509%, 25.219727%, 12.463379%)" stop-opacity="1"/>
<stop offset="0.398437" stop-color="rgb(88.394165%, 25.398254%, 12.42218%)" stop-opacity="1"/>
<stop offset="0.402344" stop-color="rgb(88.493347%, 25.59967%, 12.400818%)" stop-opacity="1"/>
<stop offset="0.40625" stop-color="rgb(88.589478%, 25.801086%, 12.379456%)" stop-opacity="1"/>
<stop offset="0.410156" stop-color="rgb(88.68866%, 26.011658%, 12.364197%)" stop-opacity="1"/>
<stop offset="0.414062" stop-color="rgb(88.787842%, 26.222229%, 12.350464%)" stop-opacity="1"/>
<stop offset="0.421875" stop-color="rgb(88.88092%, 26.31073%, 12.321472%)" stop-opacity="1"/>
<stop offset="0.429687" stop-color="rgb(89.044189%, 26.512146%, 12.265015%)" stop-opacity="1"/>
<stop offset="0.433594" stop-color="rgb(89.126587%, 26.809692%, 12.208557%)" stop-opacity="1"/>
<stop offset="0.4375" stop-color="rgb(89.138794%, 26.992798%, 12.179565%)" stop-opacity="1"/>
<stop offset="0.441406" stop-color="rgb(89.196777%, 27.175903%, 12.14447%)" stop-opacity="1"/>
<stop offset="0.445313" stop-color="rgb(89.256287%, 27.357483%, 12.107849%)" stop-opacity="1"/>
<stop offset="0.449219" stop-color="rgb(89.355469%, 27.539062%, 12.063599%)" stop-opacity="1"/>
<stop offset="0.453125" stop-color="rgb(89.454651%, 27.720642%, 12.020874%)" stop-opacity="1"/>
<stop offset="0.460938" stop-color="rgb(89.479065%, 27.830505%, 12.001038%)" stop-opacity="1"/>
<stop offset="0.46875" stop-color="rgb(89.515686%, 28.038025%, 11.964417%)" stop-opacity="1"/>
<stop offset="0.472656" stop-color="rgb(89.628601%, 28.317261%, 11.904907%)" stop-opacity="1"/>
<stop offset="0.476562" stop-color="rgb(89.727783%, 28.49884%, 11.862183%)" stop-opacity="1"/>
<stop offset="0.484375" stop-color="rgb(89.825439%, 28.651428%, 11.82251%)" stop-opacity="1"/>
<stop offset="0.492188" stop-color="rgb(90.0177%, 28.892517%, 11.753845%)" stop-opacity="1"/>
<stop offset="0.5" stop-color="rgb(90.156555%, 29.130554%, 11.695862%)" stop-opacity="1"/>
<stop offset="0.503906" stop-color="rgb(90.214539%, 29.46167%, 11.637878%)" stop-opacity="1"/>
<stop offset="0.507812" stop-color="rgb(90.226746%, 29.644775%, 11.608887%)" stop-opacity="1"/>
<stop offset="0.511719" stop-color="rgb(90.386963%, 29.747009%, 11.566162%)" stop-opacity="1"/>
<stop offset="0.515625" stop-color="rgb(90.54718%, 29.850769%, 11.521912%)" stop-opacity="1"/>
<stop offset="0.519531" stop-color="rgb(90.719604%, 29.953003%, 11.477661%)" stop-opacity="1"/>
<stop offset="0.523438" stop-color="rgb(90.890503%, 30.056763%, 11.431885%)" stop-opacity="1"/>
<stop offset="0.527344" stop-color="rgb(90.992737%, 30.239868%, 11.387634%)" stop-opacity="1"/>
<stop offset="0.53125" stop-color="rgb(91.093445%, 30.4245%, 11.341858%)" stop-opacity="1"/>
<stop offset="0.539062" stop-color="rgb(91.157532%, 30.57251%, 11.309814%)" stop-opacity="1"/>
<stop offset="0.546875" stop-color="rgb(91.227722%, 30.812073%, 11.262512%)" stop-opacity="1"/>
<stop offset="0.554688" stop-color="rgb(91.360474%, 31.021118%, 11.230469%)" stop-opacity="1"/>
<stop offset="0.5625" stop-color="rgb(91.673279%, 31.259155%, 11.195374%)" stop-opacity="1"/>
<stop offset="0.566406" stop-color="rgb(91.88385%, 31.568909%, 11.148071%)" stop-opacity="1"/>
<stop offset="0.570312" stop-color="rgb(91.906738%, 31.750488%, 11.11908%)" stop-opacity="1"/>
<stop offset="0.574219" stop-color="rgb(91.938782%, 31.936646%, 11.08551%)" stop-opacity="1"/>
<stop offset="0.578125" stop-color="rgb(91.969299%, 32.122803%, 11.051941%)" stop-opacity="1"/>
<stop offset="0.582031" stop-color="rgb(92.074585%, 32.310486%, 11.006165%)" stop-opacity="1"/>
<stop offset="0.585937" stop-color="rgb(92.176819%, 32.496643%, 10.960388%)" stop-opacity="1"/>
<stop offset="0.589844" stop-color="rgb(92.237854%, 32.684326%, 10.920715%)" stop-opacity="1"/>
<stop offset="0.59375" stop-color="rgb(92.298889%, 32.872009%, 10.882568%)" stop-opacity="1"/>
<stop offset="0.597656" stop-color="rgb(92.312622%, 33.058167%, 10.852051%)" stop-opacity="1"/>
<stop offset="0.601562" stop-color="rgb(92.326355%, 33.244324%, 10.821533%)" stop-opacity="1"/>
<stop offset="0.605469" stop-color="rgb(92.407227%, 33.433533%, 10.778809%)" stop-opacity="1"/>
<stop offset="0.609375" stop-color="rgb(92.486572%, 33.61969%, 10.73761%)" stop-opacity="1"/>
<stop offset="0.613281" stop-color="rgb(92.590332%, 33.807373%, 10.690308%)" stop-opacity="1"/>
<stop offset="0.617187" stop-color="rgb(92.694092%, 33.995056%, 10.643005%)" stop-opacity="1"/>
<stop offset="0.621094" stop-color="rgb(92.709351%, 34.184265%, 10.612488%)" stop-opacity="1"/>
<stop offset="0.625" stop-color="rgb(92.723083%, 34.370422%, 10.58197%)" stop-opacity="1"/>
<stop offset="0.628906" stop-color="rgb(92.76123%, 34.558105%, 10.546875%)" stop-opacity="1"/>
<stop offset="0.632813" stop-color="rgb(92.800903%, 34.745789%, 10.51178%)" stop-opacity="1"/>
<stop offset="0.636719" stop-color="rgb(92.906189%, 34.934998%, 10.464478%)" stop-opacity="1"/>
<stop offset="0.640625" stop-color="rgb(93.009949%, 35.124207%, 10.417175%)" stop-opacity="1"/>
<stop offset="0.648438" stop-color="rgb(93.061829%, 35.263062%, 10.386658%)" stop-opacity="1"/>
<stop offset="0.65625" stop-color="rgb(93.121338%, 35.493469%, 10.340881%)" stop-opacity="1"/>
<stop offset="0.660156" stop-color="rgb(93.22052%, 35.835266%, 10.272217%)" stop-opacity="1"/>
<stop offset="0.664063" stop-color="rgb(93.312073%, 36.080933%, 10.218811%)" stop-opacity="1"/>
<stop offset="0.667969" stop-color="rgb(93.417358%, 36.351013%, 10.157776%)" stop-opacity="1"/>
<stop offset="0.671875" stop-color="rgb(93.52417%, 36.62262%, 10.098267%)" stop-opacity="1"/>
<stop offset="0.679688" stop-color="rgb(93.530273%, 36.717224%, 10.083008%)" stop-opacity="1"/>
<stop offset="0.6875" stop-color="rgb(93.55011%, 36.967468%, 10.041809%)" stop-opacity="1"/>
<stop offset="0.691406" stop-color="rgb(93.585205%, 37.408447%, 9.968567%)" stop-opacity="1"/>
<stop offset="0.695312" stop-color="rgb(93.606567%, 37.689209%, 9.922791%)" stop-opacity="1"/>
<stop offset="0.699219" stop-color="rgb(93.675232%, 37.860107%, 9.884644%)" stop-opacity="1"/>
<stop offset="0.703125" stop-color="rgb(93.743896%, 38.031006%, 9.844971%)" stop-opacity="1"/>
<stop offset="0.710938" stop-color="rgb(93.843079%, 38.127136%, 9.812927%)" stop-opacity="1"/>
<stop offset="0.714844" stop-color="rgb(93.968201%, 38.401794%, 9.747314%)" stop-opacity="1"/>
<stop offset="0.71875" stop-color="rgb(93.994141%, 38.578796%, 9.716797%)" stop-opacity="1"/>
<stop offset="0.722656" stop-color="rgb(94.021606%, 38.768005%, 9.683228%)" stop-opacity="1"/>
<stop offset="0.726562" stop-color="rgb(94.049072%, 38.955688%, 9.649658%)" stop-opacity="1"/>
<stop offset="0.730469" stop-color="rgb(94.155884%, 39.149475%, 9.599304%)" stop-opacity="1"/>
<stop offset="0.734375" stop-color="rgb(94.262695%, 39.341736%, 9.550476%)" stop-opacity="1"/>
<stop offset="0.742188" stop-color="rgb(94.329834%, 39.494324%, 9.513855%)" stop-opacity="1"/>
<stop offset="0.75" stop-color="rgb(94.404602%, 39.741516%, 9.463501%)" stop-opacity="1"/>
<stop offset="0.757812" stop-color="rgb(94.487%, 39.996338%, 9.408569%)" stop-opacity="1"/>
<stop offset="0.761719" stop-color="rgb(94.668579%, 40.350342%, 9.320068%)" stop-opacity="1"/>
<stop offset="0.765625" stop-color="rgb(94.776917%, 40.544128%, 9.269714%)" stop-opacity="1"/>
<stop offset="0.769531" stop-color="rgb(94.885254%, 40.737915%, 9.220886%)" stop-opacity="1"/>
<stop offset="0.773438" stop-color="rgb(94.992065%, 40.931702%, 9.170532%)" stop-opacity="1"/>
<stop offset="0.777344" stop-color="rgb(95.082092%, 41.123962%, 9.12323%)" stop-opacity="1"/>
<stop offset="0.78125" stop-color="rgb(95.172119%, 41.317749%, 9.077454%)" stop-opacity="1"/>
<stop offset="0.785156" stop-color="rgb(95.187378%, 41.506958%, 9.04541%)" stop-opacity="1"/>
<stop offset="0.789062" stop-color="rgb(95.202637%, 41.696167%, 9.013367%)" stop-opacity="1"/>
<stop offset="0.792969" stop-color="rgb(95.262146%, 41.888428%, 8.972168%)" stop-opacity="1"/>
<stop offset="0.796875" stop-color="rgb(95.321655%, 42.080688%, 8.932495%)" stop-opacity="1"/>
<stop offset="0.800781" stop-color="rgb(95.431519%, 42.276001%, 8.880615%)" stop-opacity="1"/>
<stop offset="0.804688" stop-color="rgb(95.539856%, 42.471313%, 8.830261%)" stop-opacity="1"/>
<stop offset="0.808594" stop-color="rgb(95.581055%, 42.662048%, 8.79364%)" stop-opacity="1"/>
<stop offset="0.8125" stop-color="rgb(95.620728%, 42.852783%, 8.757019%)" stop-opacity="1"/>
<stop offset="0.816406" stop-color="rgb(95.635986%, 43.043518%, 8.724976%)" stop-opacity="1"/>
<stop offset="0.820312" stop-color="rgb(95.652771%, 43.232727%, 8.692932%)" stop-opacity="1"/>
<stop offset="0.824219" stop-color="rgb(95.66803%, 43.421936%, 8.660889%)" stop-opacity="1"/>
<stop offset="0.828125" stop-color="rgb(95.684814%, 43.612671%, 8.628845%)" stop-opacity="1"/>
<stop offset="0.832031" stop-color="rgb(95.700073%, 43.803406%, 8.596802%)" stop-opacity="1"/>
<stop offset="0.835937" stop-color="rgb(95.716858%, 43.992615%, 8.564758%)" stop-opacity="1"/>
<stop offset="0.839844" stop-color="rgb(95.732117%, 44.18335%, 8.532715%)" stop-opacity="1"/>
<stop offset="0.84375" stop-color="rgb(95.748901%, 44.372559%, 8.500671%)" stop-opacity="1"/>
<stop offset="0.847656" stop-color="rgb(95.76416%, 44.561768%, 8.468628%)" stop-opacity="1"/>
<stop offset="0.851562" stop-color="rgb(95.780945%, 44.750977%, 8.436584%)" stop-opacity="1"/>
<stop offset="0.855469" stop-color="rgb(95.796204%, 44.941711%, 8.404541%)" stop-opacity="1"/>
<stop offset="0.859375" stop-color="rgb(95.812988%, 45.132446%, 8.372498%)" stop-opacity="1"/>
<stop offset="0.863281" stop-color="rgb(95.828247%, 45.321655%, 8.340454%)" stop-opacity="1"/>
<stop offset="0.867187" stop-color="rgb(95.845032%, 45.510864%, 8.308411%)" stop-opacity="1"/>
<stop offset="0.871094" stop-color="rgb(95.860291%, 45.69397%, 8.277893%)" stop-opacity="1"/>
<stop offset="0.875" stop-color="rgb(95.875549%, 45.877075%, 8.247375%)" stop-opacity="1"/>
<stop offset="0.882813" stop-color="rgb(95.883179%, 45.973206%, 8.230591%)" stop-opacity="1"/>
<stop offset="0.890625" stop-color="rgb(95.904541%, 46.226501%, 8.189392%)" stop-opacity="1"/>
<stop offset="0.894531" stop-color="rgb(95.941162%, 46.670532%, 8.114624%)" stop-opacity="1"/>
<stop offset="0.898438" stop-color="rgb(95.965576%, 46.955872%, 8.065796%)" stop-opacity="1"/>
<stop offset="0.902344" stop-color="rgb(95.985413%, 47.183228%, 8.027649%)" stop-opacity="1"/>
<stop offset="0.90625" stop-color="rgb(96.003723%, 47.410583%, 7.989502%)" stop-opacity="1"/>
<stop offset="0.910156" stop-color="rgb(96.020508%, 47.601318%, 7.957458%)" stop-opacity="1"/>
<stop offset="0.914063" stop-color="rgb(96.035767%, 47.790527%, 7.925415%)" stop-opacity="1"/>
<stop offset="0.917969" stop-color="rgb(96.058655%, 48.06366%, 7.879639%)" stop-opacity="1"/>
<stop offset="0.921875" stop-color="rgb(96.081543%, 48.33374%, 7.833862%)" stop-opacity="1"/>
<stop offset="0.925781" stop-color="rgb(96.102905%, 48.59314%, 7.791138%)" stop-opacity="1"/>
<stop offset="0.929688" stop-color="rgb(96.125793%, 48.852539%, 7.746887%)" stop-opacity="1"/>
<stop offset="0.9375" stop-color="rgb(96.133423%, 48.947144%, 7.730103%)" stop-opacity="1"/>
<stop offset="0.941406" stop-color="rgb(96.156311%, 49.214172%, 7.685852%)" stop-opacity="1"/>
<stop offset="0.945312" stop-color="rgb(96.170044%, 49.385071%, 7.65686%)" stop-opacity="1"/>
<stop offset="0.949219" stop-color="rgb(96.194458%, 49.671936%, 7.609558%)" stop-opacity="1"/>
<stop offset="0.953125" stop-color="rgb(96.218872%, 49.95575%, 7.56073%)" stop-opacity="1"/>
<stop offset="0.960938" stop-color="rgb(96.231079%, 50.112915%, 7.53479%)" stop-opacity="1"/>
<stop offset="0.96875" stop-color="rgb(96.252441%, 50.364685%, 7.492065%)" stop-opacity="1"/>
<stop offset="1" stop-color="rgb(96.261597%, 50.466919%, 7.475281%)" stop-opacity="1"/>
</linearGradient>
</defs>
<g clip-path="url(#clip-0)">
<g clip-path="url(#clip-1)">
<path fill-rule="nonzero" fill="url(#linear-pattern-0)" d="M 1604.964844 -1604.964844 L -1707.773438 1707.773438 L 1604.964844 5020.515625 L 4917.703125 1707.773438 Z M 1604.964844 -1604.964844 "/>
</g>
</g>
</svg>
